<?xml version="1.0" encoding="UTF-8"?>
<svg id="Capa_2" data-name="Capa 2" xmlns="http://www.w3.org/2000/svg" viewBox="0 0 66.12 76.12">
  <defs>
    <style>
      .cls-1 {
        fill: #fff;
        stroke-width: 0px;
      }
    </style>
  </defs>
  <g id="Capa_1-2" data-name="Capa 1">
    <path class="cls-1" d="m63.61,35.76l-.08-.04-1.46-.82-1.56-.88-.08-.04-8.62-4.85-9.38-5.29-2.58-1.44-6.55-3.69-2.68-1.5-3.61-2.04-.08-.04-1.58-.88-1.46-.82-.06-.04L5.23,2.93,0,0v76.12l24.72-14.55.08-.04,1.44-.86,1.58-.94.08-.04,3.27-1.92,2.68-1.58,6.25-3.67,2.52-1.5,17.81-10.48.08-.04,1.58-.92,1.44-.86.08-.04,2.54-1.5-2.54-1.42.02-.02Zm-24.52-8.72l10.56,5.95,4.97,2.8h-29.95c.12-1.98.48-3.91,1.08-5.77,1.06.2,2.16.3,3.25.3,3.77,0,7.23-1.22,10.06-3.27h.02Zm-2.81-1.6c-2.14,1.26-4.61,1.98-7.25,1.98-.74,0-1.48-.06-2.18-.18.86-1.92,1.96-3.67,3.25-5.27,0,0,6.17,3.47,6.17,3.47Zm-13.78-7.75h.08l4.97,2.83c-1.42,1.8-2.64,3.81-3.55,5.97h0c-2.4-.92-4.47-2.42-6.07-4.35h0s-.02-.06-.06-.08c1.36-1.66,2.91-3.11,4.63-4.37Zm-6.37,6.79s0,.04.06.06c1.8,2.06,4.11,3.65,6.75,4.67h0c-.66,2.14-1.06,4.33-1.18,6.57h-9.26c.24-4.13,1.54-7.99,3.61-11.3h.02Zm.08,25.51s-.06.04-.06.08c-2.1-3.33-3.39-7.21-3.65-11.38h9.26c.12,2.28.52,4.49,1.2,6.65-2.64.98-4.93,2.58-6.77,4.65h.02Zm7.09,7.27l-.08.04c-2.02-1.34-3.81-2.95-5.33-4.83.02,0,.04-.04.06-.08,1.58-1.96,3.65-3.45,6.05-4.33,1.6-.59,1.6-.59.02,0,1.02,2.38,2.36,4.53,3.97,6.47l-4.69,2.76v-.02Zm7.25-4.25c-1.48-1.68-2.7-3.59-3.65-5.67.7-.12,1.42-.18,2.14-.18,2.8,0,5.45.82,7.67,2.24l-6.13,3.61h-.02Zm8.86-5.21c-2.87-2.22-6.49-3.53-10.4-3.53-1.08,0-2.16.1-3.21.3-.62-1.92-1-3.87-1.12-5.89h30.21l-15.47,9.1v.02Z"/>
  </g>
</svg>