<?xml version="1.0" encoding="UTF-8"?>
<svg id="Capa_2" data-name="Capa 2" xmlns="http://www.w3.org/2000/svg" viewBox="0 0 223.85 58.58">
  <defs>
    <style>
      .cls-1 {
        fill: #df2320;
        stroke-width: 0px;
      }
    </style>
  </defs>
  <g id="Capa_1-2" data-name="Capa 1">
    <g>
      <g id="Capa_1-2" data-name="Capa 1-2">
        <path class="cls-1" d="m48.94,27.51l-.06-.03-1.12-.63-1.2-.68-.06-.03-6.64-3.73-7.22-4.07-1.98-1.11-5.04-2.84-2.06-1.15-2.78-1.57-.06-.03-1.21-.68-1.12-.63-.05-.03L4.02,2.26,0,0v58.58l19.02-11.2.06-.03,1.11-.66,1.21-.72.06-.03,2.52-1.47,2.06-1.21,4.81-2.83,1.94-1.15,13.7-8.07.06-.03,1.21-.71,1.11-.66.06-.03,1.95-1.15-1.95-1.09.02-.02Zm-18.86-6.71l8.13,4.58,3.83,2.15h-23.04c.09-1.52.37-3.01.83-4.44.81.15,1.66.23,2.5.23,2.9,0,5.56-.94,7.74-2.52h.02Zm-2.17-1.23c-1.64.97-3.55,1.52-5.58,1.52-.57,0-1.14-.05-1.67-.14.66-1.47,1.51-2.83,2.5-4.06l4.75,2.67Zm-10.6-5.96h.06l3.83,2.18c-1.09,1.38-2.03,2.93-2.73,4.59h0c-1.84-.71-3.44-1.86-4.67-3.35h0s-.02-.05-.05-.06c1.04-1.28,2.24-2.4,3.56-3.36Zm-4.9,5.22s0,.03.05.05c1.38,1.58,3.16,2.81,5.19,3.59h0c-.51,1.64-.81,3.33-.91,5.05h-7.13c.18-3.18,1.18-6.14,2.78-8.7h.02Zm.06,19.63s-.05.03-.05.06c-1.61-2.57-2.61-5.55-2.81-8.76h7.13c.09,1.75.4,3.46.92,5.12-2.03.75-3.79,1.98-5.21,3.58h.02Zm5.45,5.59l-.06.03c-1.55-1.03-2.93-2.27-4.1-3.72.02,0,.03-.03.05-.06,1.21-1.51,2.81-2.66,4.65-3.33,1.23-.45,1.23-.45.02,0,.78,1.83,1.81,3.49,3.06,4.98l-3.61,2.12v-.02Zm5.58-3.27c-1.14-1.29-2.07-2.77-2.81-4.36.54-.09,1.09-.14,1.64-.14,2.15,0,4.19.63,5.9,1.72l-4.72,2.78h-.02Zm6.82-4.01c-2.21-1.71-4.99-2.72-8-2.72-.83,0-1.66.08-2.47.23-.48-1.47-.77-2.98-.86-4.53h23.24l-11.91,7.01v.02Z"/>
      </g>
      <g>
        <path class="cls-1" d="m67.84,44.56V14.83h7.74c1.28,0,2.47.1,3.61.29s2.14.57,3.03,1.12c.88.54,1.56,1.34,2.08,2.35.49,1.02.75,2.36.75,4.02,0,1.2-.18,2.2-.53,3.03-.35.81-.86,1.47-1.5,1.96s-1.42.81-2.33.99c1.15.14,2.12.53,2.91,1.12s1.37,1.4,1.79,2.41c.4,1.01.61,2.22.61,3.64,0,1.55-.21,2.87-.61,3.98-.4,1.12-.99,2.03-1.74,2.73-.77.7-1.69,1.23-2.81,1.58-1.12.34-2.39.51-3.83.51h-9.16Zm6.56-17.83h1.28c1.01,0,1.76-.16,2.27-.46.51-.3.86-.75,1.05-1.34s.27-1.29.27-2.12c0-.78-.14-1.44-.42-1.96-.29-.53-.7-.93-1.25-1.2s-1.25-.4-2.08-.4h-1.13v7.49Zm0,13.25h1.39c1.44,0,2.44-.37,2.99-1.1.54-.73.83-1.8.83-3.22,0-1.12-.13-2.01-.37-2.68-.24-.65-.65-1.15-1.21-1.45s-1.33-.46-2.27-.46h-1.36v8.92Z"/>
        <path class="cls-1" d="m87.91,44.56l5.62-29.73h7.49l5.54,29.73h-6.05l-.99-6.27h-4.37l-1.02,6.27h-6.21Zm7.82-10.2h3.16l-1.58-11.59-1.58,11.59Z"/>
        <path class="cls-1" d="m117.15,45.01c-1.87,0-3.42-.34-4.66-.99s-2.19-1.68-2.83-3.07-.99-3.18-1.07-5.38l5.62-.85c.03,1.28.14,2.3.35,3.08.21.78.49,1.34.88,1.69.38.34.83.51,1.37.51.69,0,1.13-.24,1.34-.7.21-.46.32-.96.32-1.47,0-1.23-.29-2.25-.88-3.1s-1.39-1.69-2.38-2.55l-2.57-2.24c-1.13-.96-2.08-2.04-2.84-3.24-.77-1.21-1.15-2.71-1.15-4.49,0-2.52.75-4.44,2.24-5.78,1.48-1.33,3.53-2,6.08-2,1.6,0,2.87.27,3.83.81.97.54,1.71,1.25,2.2,2.11s.85,1.79,1.02,2.75c.19.97.29,1.88.32,2.78l-5.65.7c-.03-.88-.08-1.64-.16-2.3-.08-.65-.26-1.15-.53-1.5s-.69-.53-1.25-.53c-.61,0-1.05.26-1.34.77-.29.51-.42,1.02-.42,1.53,0,1.1.27,2,.78,2.7.53.7,1.21,1.42,2.08,2.19l2.46,2.17c1.29,1.1,2.39,2.35,3.29,3.74s1.34,3.11,1.34,5.17c0,1.39-.32,2.67-.96,3.8-.64,1.13-1.53,2.04-2.7,2.7s-2.54.99-4.12.99l-.03-.02Z"/>
        <path class="cls-1" d="m149.45,44.56V14.83h13.36v4.47h-6.79v7.38h5.17v4.55h-5.17v8.88h6.87v4.44h-13.43l-.02.02Z"/>
        <path class="cls-1" d="m168.52,44.56v-24.84h-4.47v-4.89h15.52v4.89h-4.44v24.84h-6.61Z"/>
        <path class="cls-1" d="m181.74,44.56v-5.65h5.65s0,5.65,0,5.65h-5.65Z"/>
        <path class="cls-1" d="m193.89,44.56v-24.84h-4.47v-4.89h15.52v4.89h-4.44v24.84h-6.61Z"/>
        <path class="cls-1" d="m211.5,44.56l-5.36-29.73h5.62l3.19,20.18,2.97-20.18h5.94l-5.43,29.73h-6.93Z"/>
        <path class="cls-1" d="m146.81,44.6c-.29,0-.55,0-.81,0-1.92,0-3.83,0-5.75,0-.21,0-.29-.09-.35-.27-.63-1.98-1.27-3.95-1.9-5.93-.47-1.46-.94-2.93-1.4-4.4-.24-.78-.47-1.56-.73-2.4-.16.23-.28.42-.42.6-.34.46-.44.96-.43,1.54.02,3.38.02,6.76.02,10.14,0,.12-.01.25,0,.37.03.25-.07.33-.32.33-1.77-.01-3.53,0-5.3,0-.33,0-.67,0-1.03,0,0-.12-.02-.23-.02-.35,0-4.95,0-9.91,0-14.86,0-4.74,0-9.48,0-14.21,0-.36,0-.36.35-.36,2,0,4,0,6,0,.33,0,.33,0,.33.33,0,3.62,0,7.24,0,10.87,0,.27,0,.54,0,.85.06-.05.09-.07.1-.09.44-1.12.89-2.24,1.33-3.36.44-1.11.88-2.22,1.32-3.34.41-1.05.81-2.09,1.22-3.14.26-.66.52-1.31.77-1.97.06-.17.18-.14.3-.14,1.77,0,3.53,0,5.3,0,.32,0,.63,0,.99,0-.06.19-.09.36-.16.51-.53,1.35-1.07,2.69-1.61,4.03-.74,1.87-1.48,3.74-2.21,5.62-.41,1.05-.82,2.11-1.22,3.16-.05.12-.05.28,0,.4.64,1.83,1.29,3.65,1.94,5.48.63,1.79,1.26,3.57,1.89,5.36.57,1.62,1.14,3.25,1.71,4.87.03.1.06.2.09.34Z"/>
      </g>
    </g>
  </g>
</svg>