<?xml version="1.0" encoding="UTF-8"?>
<svg id="Capa_2" data-name="Capa 2" xmlns="http://www.w3.org/2000/svg" viewBox="0 0 129.28 104.2">
  <defs>
    <style>
      .cls-1 {
        fill: #df2320;
        stroke-width: 0px;
      }
    </style>
  </defs>
  <g id="Capa_1-2" data-name="Capa 1">
    <g>
      <path class="cls-1" d="m90.08,25.93l-.06-.03-1.06-.59-1.13-.64-.06-.03-6.26-3.52-6.81-3.84-1.87-1.04-4.75-2.68-1.94-1.09-2.62-1.48-.06-.03-1.14-.64-1.06-.59-.04-.03-13.5-7.59-3.79-2.13v55.21l17.93-10.56.06-.03,1.04-.62,1.14-.68.06-.03,2.37-1.39,1.94-1.14,4.53-2.66,1.82-1.09,12.92-7.6.06-.03,1.14-.67,1.04-.62.06-.03,1.84-1.09-1.84-1.03h.01Zm-17.78-6.33l7.66,4.32,3.61,2.03h-21.72c.09-1.43.35-2.84.78-4.18.77.14,1.56.22,2.36.22,2.74,0,5.24-.88,7.3-2.37h.01Zm-2.04-1.16c-1.55.91-3.34,1.43-5.26,1.43-.54,0-1.07-.04-1.58-.13.62-1.39,1.42-2.66,2.36-3.82,0,0,4.47,2.52,4.47,2.52Zm-9.99-5.62h.06l3.61,2.06c-1.03,1.3-1.91,2.77-2.58,4.33h0c-1.74-.67-3.24-1.75-4.4-3.16h0s-.01-.04-.04-.06c.98-1.2,2.11-2.26,3.36-3.17Zm-4.62,4.92s0,.03.04.04c1.3,1.49,2.98,2.65,4.89,3.39h0c-.48,1.55-.77,3.14-.85,4.76h-6.72c.17-3,1.11-5.79,2.62-8.2h.01Zm.06,18.51s-.04.03-.04.06c-1.52-2.42-2.46-5.23-2.65-8.25h6.72c.09,1.65.38,3.26.87,4.82-1.91.71-3.58,1.87-4.91,3.37h.01Zm5.14,5.27l-.06.03c-1.46-.97-2.77-2.14-3.87-3.5.01,0,.03-.03.04-.06,1.14-1.42,2.65-2.51,4.39-3.14,1.16-.42,1.16-.42.01,0,.74,1.72,1.71,3.29,2.88,4.69l-3.4,2h0Zm5.26-3.08c-1.07-1.22-1.95-2.61-2.65-4.11.51-.09,1.03-.13,1.55-.13,2.03,0,3.95.59,5.56,1.62l-4.45,2.62h-.01Zm6.43-3.78c-2.09-1.61-4.71-2.56-7.54-2.56-.78,0-1.56.07-2.33.22-.45-1.39-.72-2.81-.81-4.27h21.91l-11.22,6.6h0Z"/>
      <g>
        <path class="cls-1" d="m0,103.82v-24.63h6.42c1.06,0,2.05.08,2.99.24s1.77.48,2.51.93c.73.45,1.3,1.11,1.72,1.94.41.85.62,1.96.62,3.33,0,.99-.15,1.83-.44,2.51-.29.67-.71,1.22-1.24,1.63s-1.18.67-1.93.82c.95.12,1.76.44,2.41.93s1.14,1.16,1.48,2c.33.83.5,1.84.5,3.02,0,1.28-.17,2.38-.5,3.29-.33.93-.82,1.68-1.44,2.26-.64.58-1.4,1.02-2.33,1.31-.93.28-1.98.42-3.18.42H0Zm5.44-14.78h1.06c.83,0,1.46-.13,1.88-.38.42-.25.71-.62.87-1.11s.22-1.07.22-1.76c0-.65-.12-1.19-.34-1.63-.24-.44-.58-.77-1.03-.99s-1.03-.33-1.72-.33h-.94v6.2Zm0,10.98h1.15c1.19,0,2.02-.3,2.47-.91.45-.61.69-1.49.69-2.67,0-.93-.11-1.67-.3-2.22-.2-.54-.54-.95-1.01-1.2s-1.1-.38-1.88-.38h-1.12v7.38h0Z"/>
        <path class="cls-1" d="m16.63,103.82l4.66-24.63h6.2l4.59,24.63h-5.01l-.82-5.2h-3.62l-.85,5.2h-5.15Zm6.48-8.45h2.62l-1.31-9.6-1.31,9.6Z"/>
        <path class="cls-1" d="m40.87,104.19c-1.55,0-2.83-.28-3.86-.82s-1.81-1.39-2.34-2.54-.82-2.63-.89-4.46l4.66-.7c.03,1.06.12,1.91.29,2.55.17.65.41,1.11.73,1.4.32.28.69.42,1.14.42.57,0,.94-.2,1.11-.58.17-.38.26-.79.26-1.22,0-1.02-.24-1.87-.73-2.57s-1.15-1.4-1.97-2.12l-2.13-1.85c-.94-.79-1.72-1.69-2.35-2.69-.64-1.01-.95-2.25-.95-3.72,0-2.09.62-3.68,1.85-4.79,1.23-1.1,2.92-1.65,5.04-1.65,1.32,0,2.38.22,3.18.67.81.45,1.42,1.03,1.83,1.75s.7,1.48.85,2.28c.16.81.24,1.56.26,2.3l-4.68.58c-.03-.73-.07-1.36-.13-1.91-.07-.54-.21-.95-.44-1.24s-.57-.44-1.03-.44c-.5,0-.87.21-1.11.64-.24.42-.34.85-.34,1.27,0,.91.22,1.65.65,2.24.44.58,1.01,1.18,1.72,1.81l2.04,1.8c1.07.91,1.98,1.94,2.73,3.1s1.11,2.58,1.11,4.29c0,1.15-.26,2.21-.79,3.15-.53.94-1.27,1.69-2.24,2.24s-2.1.82-3.41.82h-.03Z"/>
        <path class="cls-1" d="m67.62,103.82v-24.63h11.07v3.7h-5.62v6.11h4.29v3.77h-4.29v7.36h5.69v3.68h-11.14Z"/>
        <path class="cls-1" d="m83.43,103.82v-20.58h-3.7v-4.05h12.86v4.05h-3.68v20.58h-5.48Z"/>
        <path class="cls-1" d="m94.38,103.82v-4.68h4.68s0,4.68,0,4.68h-4.68Z"/>
        <path class="cls-1" d="m104.45,103.82v-20.58h-3.7v-4.05h12.86v4.05h-3.68v20.58h-5.48Z"/>
        <path class="cls-1" d="m119.04,103.82l-4.45-24.63h4.66l2.65,16.72,2.46-16.72h4.92l-4.5,24.63h-5.74Z"/>
        <path class="cls-1" d="m65.44,103.85c-.24,0-.45,0-.67,0-1.59,0-3.18,0-4.76,0-.18,0-.24-.08-.29-.22-.53-1.64-1.05-3.28-1.58-4.91-.39-1.21-.78-2.43-1.16-3.64-.2-.64-.39-1.29-.6-1.98-.13.19-.23.35-.34.5-.28.38-.36.8-.36,1.27.02,2.8.01,5.6.02,8.4,0,.1-.01.21,0,.31.02.21-.05.27-.27.27-1.46,0-2.93,0-4.39,0-.28,0-.55,0-.85,0,0-.1-.02-.19-.02-.29,0-4.11,0-8.21,0-12.32,0-3.93,0-7.85,0-11.78,0-.3,0-.3.29-.3,1.66,0,3.31,0,4.97,0,.28,0,.27,0,.27.27,0,3,0,6,0,9,0,.22,0,.45,0,.71.05-.04.07-.06.08-.08.37-.93.74-1.86,1.1-2.79.36-.92.73-1.84,1.09-2.77.34-.87.67-1.73,1.01-2.6.21-.55.43-1.09.64-1.64.05-.14.15-.12.25-.12,1.46,0,2.93,0,4.39,0,.26,0,.52,0,.82,0-.05.16-.08.3-.13.42-.44,1.11-.89,2.23-1.33,3.34-.61,1.55-1.22,3.1-1.83,4.65-.34.87-.68,1.74-1.01,2.62-.04.1-.04.23,0,.34.53,1.51,1.07,3.03,1.61,4.54.52,1.48,1.05,2.96,1.57,4.44.47,1.35.95,2.69,1.42,4.04.03.08.05.17.08.28Z"/>
      </g>
    </g>
  </g>
</svg>